<svg xmlns="http://www.w3.org/2000/svg" width="120" height="120" viewBox="0 0 120 120" fill="none">
  <!-- Warm peach/sand background -->
  <circle cx="60" cy="60" r="56" fill="#E8D4B8"/>
  <circle cx="60" cy="60" r="54" fill="#E8D4B8" stroke="#D4B896" stroke-width="3" stroke-linecap="round" stroke-linejoin="round"/>

  <!-- Face -->
  <circle cx="60" cy="58" r="22" fill="#FDDCC4" stroke="#7A5C48" stroke-width="2.5" stroke-linecap="round" stroke-linejoin="round"/>

  <!-- Messy hair strokes -->
  <path d="M40 48C42 34 50 28 60 28C70 28 78 34 80 48" stroke="#7A5C48" stroke-width="3" stroke-linecap="round" stroke-linejoin="round" fill="#8B6B52"/>
  <path d="M38 50C40 46 43 42 46 40" stroke="#7A5C48" stroke-width="2.5" stroke-linecap="round" stroke-linejoin="round"/>
  <path d="M74 40C77 42 80 46 82 50" stroke="#7A5C48" stroke-width="2.5" stroke-linecap="round" stroke-linejoin="round"/>
  <path d="M48 30C52 27 56 26 62 27" stroke="#7A5C48" stroke-width="2.5" stroke-linecap="round" stroke-linejoin="round"/>
  <path d="M65 28C70 30 74 33 76 37" stroke="#7A5C48" stroke-width="2.5" stroke-linecap="round" stroke-linejoin="round"/>

  <!-- Eyes -->
  <circle cx="52" cy="55" r="2.5" fill="#5A3E30"/>
  <circle cx="68" cy="55" r="2.5" fill="#5A3E30"/>

  <!-- Friendly smile -->
  <path d="M52 66C55 70 65 70 68 66" stroke="#7A5C48" stroke-width="2.5" stroke-linecap="round" stroke-linejoin="round" fill="none"/>

  <!-- Rosy cheeks -->
  <circle cx="44" cy="61" r="4" fill="#E8A090" opacity="0.5"/>
  <circle cx="76" cy="61" r="4" fill="#E8A090" opacity="0.5"/>

  <!-- Simple body/shoulders -->
  <path d="M32 100C38 84 48 78 60 78C72 78 82 84 88 100" stroke="#7A5C48" stroke-width="2.5" stroke-linecap="round" stroke-linejoin="round" fill="#C4A882"/>
</svg>
