<svg xmlns="http://www.w3.org/2000/svg" width="120" height="120" viewBox="0 0 120 120" fill="none">
  <defs>
    <linearGradient id="bg" x1="16" y1="12" x2="102" y2="108" gradientUnits="userSpaceOnUse">
      <stop stop-color="#F7D0C2"/>
      <stop offset="1" stop-color="#E79E87"/>
    </linearGradient>
    <linearGradient id="shirt" x1="60" y1="62" x2="60" y2="112" gradientUnits="userSpaceOnUse">
      <stop stop-color="#3A7BB2"/>
      <stop offset="1" stop-color="#25547D"/>
    </linearGradient>
    <linearGradient id="hair" x1="60" y1="20" x2="60" y2="58" gradientUnits="userSpaceOnUse">
      <stop stop-color="#5A3A2D"/>
      <stop offset="1" stop-color="#3E261F"/>
    </linearGradient>
  </defs>
  <circle cx="60" cy="60" r="54" fill="url(#bg)"/>
  <circle cx="60" cy="60" r="54" stroke="#F8F1ED" stroke-width="4"/>
  <path d="M22 104C28 82 42 72 60 72C78 72 92 82 98 104" fill="url(#shirt)"/>
  <path d="M44 72L60 94L76 72" fill="#E8F3FD" fill-opacity="0.88"/>
  <ellipse cx="60" cy="47" rx="17" ry="19" fill="#FFD7C1"/>
  <path d="M42 46C42 29 49 22 60 22C71 22 78 29 78 46V52H42V46Z" fill="url(#hair)"/>
  <path d="M43 50C43 38 49 34 60 34C71 34 77 38 77 50" fill="#4A2F25"/>
  <path d="M51 46C53 44 56 44 58 45" stroke="#5F433A" stroke-width="2.1" stroke-linecap="round"/>
  <path d="M62 45C64 44 67 44 69 46" stroke="#5F433A" stroke-width="2.1" stroke-linecap="round"/>
  <circle cx="54" cy="51" r="2.2" fill="#3F2F2A"/>
  <circle cx="66" cy="51" r="2.2" fill="#3F2F2A"/>
  <path d="M58 58C59 59 61 59 62 58" stroke="#C48876" stroke-width="1.8" stroke-linecap="round"/>
  <path d="M54 63C56.5 66 63.5 66 66 63" stroke="#A56F61" stroke-width="2.2" stroke-linecap="round"/>
  <circle cx="45" cy="56" r="2.5" fill="#F0B6A6" fill-opacity="0.6"/>
  <circle cx="75" cy="56" r="2.5" fill="#F0B6A6" fill-opacity="0.6"/>
</svg>
